<svg xmlns="http://www.w3.org/2000/svg" viewBox="0 0 640 480" role="img" aria-labelledby="title desc"><title id="title">Ampoules H7 performance</title><desc id="desc">Illustration produit de deux ampoules automobiles H7.</desc><defs><radialGradient id="glass"><stop stop-color="#fff" stop-opacity=".95"/><stop offset=".45" stop-color="#dff5fa" stop-opacity=".76"/><stop offset="1" stop-color="#8bbdca" stop-opacity=".3"/></radialGradient><linearGradient id="steel" x1="0" y1="0" x2="1" y2="1"><stop stop-color="#eef2f1"/><stop offset=".45" stop-color="#778783"/><stop offset=".7" stop-color="#d7dfdd"/><stop offset="1" stop-color="#4d5d58"/></linearGradient><filter id="shadow" x="-60%" y="-40%" width="220%" height="220%"><feDropShadow dx="0" dy="18" stdDeviation="15" flood-color="#10231f" flood-opacity=".2"/></filter></defs><ellipse cx="320" cy="412" rx="172" ry="24" fill="#173a32" opacity=".1"/><g filter="url(#shadow)"><g transform="translate(105 24) rotate(-8 150 220)"><path d="M122 80c-43 24-55 75-36 119l24 57h84l24-57c19-44 7-95-36-119-18-10-42-10-60 0Z" fill="url(#glass)" stroke="#8fb9c3" stroke-width="5"/><path d="M129 113h46M152 113v94M130 207h44" fill="none" stroke="#d49a2c" stroke-width="6"/><path d="M109 255h86v58h-86z" fill="url(#steel)"/><path d="M95 313h114v42H95z" fill="#384742"/><path d="M113 355h78v39h-78z" fill="#101a17"/><path d="M128 394v27M176 394v27" stroke="#64736e" stroke-width="11"/></g><g transform="translate(325 37) rotate(9 150 220)"><path d="M122 80c-43 24-55 75-36 119l24 57h84l24-57c19-44 7-95-36-119-18-10-42-10-60 0Z" fill="url(#glass)" stroke="#8fb9c3" stroke-width="5"/><path d="M129 113h46M152 113v94M130 207h44" fill="none" stroke="#d49a2c" stroke-width="6"/><path d="M109 255h86v58h-86z" fill="url(#steel)"/><path d="M95 313h114v42H95z" fill="#384742"/><path d="M113 355h78v39h-78z" fill="#101a17"/><path d="M128 394v27M176 394v27" stroke="#64736e" stroke-width="11"/></g></g><path d="M61 164h58M521 164h58M88 104l41 28M552 104l-41 28" stroke="#e4a62c" stroke-width="7" stroke-linecap="round" opacity=".8"/></svg>